<?xml version="1.0" encoding="utf-8"?>
<!-- Generator: Adobe Illustrator 27.3.1, SVG Export Plug-In . SVG Version: 6.00 Build 0)  -->
<svg version="1.2" baseProfile="tiny" id="Layer_1" xmlns="http://www.w3.org/2000/svg" xmlns:xlink="http://www.w3.org/1999/xlink"
	 x="0px" y="0px" viewBox="0 0 352.13 226.46" overflow="visible" xml:space="preserve">
<g>
	<path fill="#204288" d="M10.81,107.83h14.83v9.82H10.81v20.14h18.67v9.82H0V78.84h29.47v9.82H10.81v19.16V107.83z"/>
	<path fill="#204288" d="M67.49,121.97v9.14c0,11-5.5,17.29-16.11,17.29s-16.12-6.29-16.12-17.29V95.35c0-11,5.5-17.29,16.12-17.29
		s16.11,6.29,16.11,17.29v6.68H57.27v-7.37c0-4.91-2.16-6.78-5.6-6.78s-5.6,1.87-5.6,6.78v37.14c0,4.91,2.16,6.68,5.6,6.68
		s5.6-1.77,5.6-6.68v-9.82h10.22V121.97z"/>
	<path fill="#204288" d="M86.44,147.61H75.63V78.84h10.81v29.47h12.28V78.84h11.01v68.77H98.72v-29.47H86.44V147.61z"/>
</g>
<g>
	<path fill="#204288" d="M218.44,78.06c10.51,0,15.91,6.29,15.91,17.29v2.16h-10.22v-2.85c0-4.91-1.97-6.78-5.41-6.78
		s-5.4,1.87-5.4,6.78c0,14.15,21.12,16.8,21.12,36.45c0,11-5.5,17.29-16.11,17.29s-16.11-6.29-16.11-17.29v-4.22h10.22v4.91
		c0,4.91,2.16,6.68,5.6,6.68s5.6-1.77,5.6-6.68c0-14.15-21.12-16.8-21.12-36.45c0-11,5.4-17.29,15.91-17.29L218.44,78.06z"/>
	<path fill="#204288" d="M250.07,124.82l-13.66-45.98h11.3l8.25,31.34l8.25-31.34h10.32l-13.66,45.98v22.79h-10.8L250.07,124.82
		L250.07,124.82z"/>
	<path fill="#204288" d="M288.47,97.81v49.81h-9.72V78.85h13.56l11.1,41.16V78.85h9.63v68.77h-11.1l-13.46-49.81H288.47z"/>
	<path fill="#204288" d="M352.13,121.97v9.14c0,11-5.5,17.29-16.11,17.29s-16.12-6.29-16.12-17.29V95.35c0-11,5.5-17.29,16.12-17.29
		s16.11,6.29,16.11,17.29v6.68h-10.22v-7.37c0-4.91-2.16-6.78-5.6-6.78s-5.6,1.87-5.6,6.78v37.14c0,4.91,2.16,6.68,5.6,6.68
		s5.6-1.77,5.6-6.68v-9.82h10.22V121.97z"/>
</g>
<g>
	<path fill="#204288" d="M128.65,113.23c0-15.41,12.54-27.95,27.95-27.95c7.14,0,13.94,2.72,19.16,7.65l-4.2,4.2
		c-0.59,0.59-0.17,1.61,0.67,1.61l7.29-0.03l8.64-0.04c0.52,0,0.94-0.42,0.94-0.94l0.04-8.64l0.03-7.29c0-0.84-1.01-1.26-1.61-0.67
		l-4.21,4.21c0,0-0.05-0.07-0.08-0.1c-7.24-6.9-16.71-10.7-26.66-10.7c-21.33,0-38.69,17.35-38.69,38.69c0,2.97,2.4,5.37,5.37,5.37
		s5.37-2.4,5.37-5.37L128.65,113.23z"/>
	<path fill="#204288" d="M189.91,107.86c-2.97,0-5.37,2.4-5.37,5.37c0,15.41-12.54,27.95-27.95,27.95c-7.7,0-14.88-3.09-20.22-8.69
		c-0.03-0.03-0.07-0.05-0.1-0.08l4.21-4.21c0.6-0.6,0.17-1.61-0.67-1.61l-7.29,0.03l-8.64,0.04c-0.52,0-0.94,0.42-0.94,0.94
		l-0.04,8.64l-0.03,7.29c0,0.84,1.01,1.27,1.61,0.67l4.2-4.2c7.38,7.69,17.28,11.93,27.9,11.93c21.33,0,38.69-17.35,38.69-38.69
		c0-2.97-2.4-5.37-5.37-5.37L189.91,107.86z"/>
</g>
<g>
	<path fill="#204288" d="M156.5,176.72c-4.07,0-8.15-0.39-12.2-1.19c-9.54-1.88-18.36-5.89-26.19-11.9
		c-2.36-1.81-2.8-5.19-0.99-7.55c1.81-2.36,5.19-2.8,7.55-0.99c6.51,4.99,13.81,8.32,21.72,9.88c14.78,2.9,30.15-0.69,42.19-9.89
		c2.37-1.81,5.74-1.34,7.55,1.01c1.81,2.36,1.35,5.74-1.01,7.55C183.92,172.19,170.32,176.72,156.5,176.72L156.5,176.72z"/>
	<path fill="#204288" d="M61.76,72.49c-0.77,0-1.55-0.17-2.3-0.52c-2.69-1.27-3.84-4.48-2.56-7.17
		C83.08,9.48,147.64-14.87,203.85,9.36c25.09,10.81,45.41,30.5,57.23,55.44c1.28,2.69,0.13,5.9-2.56,7.17s-5.9,0.13-7.17-2.56
		c-10.7-22.58-29.07-40.39-51.76-50.17C148.74-2.68,90.32,19.35,66.63,69.41C65.71,71.35,63.78,72.49,61.76,72.49L61.76,72.49z"/>
	<path fill="#204288" d="M227.64,72.49c-1.73,0-3.44-0.84-4.48-2.39c-9.99-14.89-24.27-25.54-41.3-30.79
		c-32.34-9.96-68.1,2.7-86.96,30.79c-1.67,2.47-5.02,3.12-7.47,1.47c-2.47-1.66-3.13-5-1.47-7.47
		c21.5-32.02,62.24-46.43,99.08-35.07c19.41,5.98,35.69,18.11,47.07,35.07c1.66,2.47,1,5.82-1.47,7.47c-0.92,0.62-1.96,0.91-3,0.91
		L227.64,72.49z"/>
	<path fill="#204288" d="M121.35,72.49c-1.62,0-3.22-0.73-4.28-2.12c-1.81-2.36-1.35-5.74,1.01-7.55
		c14.49-11.07,33-15.41,50.81-11.89c9.58,1.88,18.41,5.89,26.23,11.9c2.36,1.81,2.8,5.19,0.99,7.55s-5.19,2.8-7.55,0.99
		c-6.5-4.99-13.82-8.31-21.76-9.88c-14.76-2.9-30.15,0.69-42.19,9.89c-0.98,0.75-2.13,1.11-3.27,1.11H121.35z"/>
	<path fill="#204288" d="M158.74,201.28c-8.56,0-17.18-1.25-25.6-3.85c-19.36-5.96-35.61-18.1-47.01-35.07
		c-1.66-2.47-1-5.81,1.47-7.47c2.46-1.65,5.81-1,7.47,1.47c10.01,14.91,24.27,25.55,41.24,30.79c32.34,9.97,68.11-2.69,86.96-30.79
		c1.66-2.47,5.01-3.13,7.47-1.47c2.47,1.66,3.13,5,1.47,7.47C215.64,187.05,187.6,201.28,158.74,201.28L158.74,201.28z"/>
	<path fill="#204288" d="M159.34,226.46c-15.02,0-30.3-3.01-45.03-9.36c-25.17-10.85-45.52-30.54-57.3-55.45
		c-1.27-2.68-0.12-5.89,2.57-7.17c2.68-1.27,5.89-0.12,7.17,2.57c10.65,22.54,29.06,40.35,51.83,50.17
		c50.87,21.9,109.28-0.11,132.96-50.17c1.27-2.69,4.48-3.83,7.17-2.56s3.84,4.48,2.56,7.17C241.94,202.5,201.7,226.46,159.34,226.46
		L159.34,226.46z"/>
</g>
</svg>
