<svg id="Capa_1" enable-background="new 0 0 512 512" height="512" viewBox="0 0 512 512" width="512" xmlns="http://www.w3.org/2000/svg"><path d="m256 22c-135.31 0-245 109.69-245 245 0 48.454 14.07 93.619 38.341 131.642l181.554 112.087c8.254.84 16.629 1.271 25.105 1.271 135.31 0 245-109.69 245-245s-109.69-245-245-245z" fill="#5fc6ff"/><path d="m345.228 41.905c46.974-20.768 84.392 6.181 95.016 15.187l.201-1.082s-9.938-33.559-58.829-51.101c-48.863-17.531-159.36 6.053-166.37 167.255l-.866 1.936c11.169-1.568 22.39-1.206 33.266 1.04 10.835 2.237 21.33 6.338 31.085 12.241 46.009 27.839 60.781 88.572 32.927 135.385l-33.835 56.866c-29.024 48.781-70.732 87.204-119.664 112.033 23.225 10.129 48.32 16.762 74.63 19.234 24.154-11.768 44.779-29.891 61.131-56.181 3.334-5.361 7.623-10.098 12.82-13.683 44.272-30.539 53.134-79.401 58.191-95.922.774-2.526 3.584-3.801 6.006-2.745l3.149 1.373c2.709 1.181 5.8-.574 6.179-3.505 9.112-70.562-9.635-114.075-9.635-114.075.137-1.902.461-3.765.949-5.572-3.007-10.797-12.845-34.928-43.971-59.747-41.93-33.435-29.439-98.131 17.62-118.937z" fill="#dd2a44"/><path d="m440.445 56.01s-9.938-33.559-58.829-51.101c-9.521-3.416-21.388-5.26-34.367-4.84s-16.245 22.07 9.215 36.668c.392.225.788.452 1.187.681 41.06-11.575 72.924 11.477 82.593 19.673z" fill="#f4456f"/><path d="m316.079 329.379-7.115-2.083-31.139 52.335c-29.024 48.782-70.732 87.204-119.664 112.033 23.225 10.129 48.32 16.762 74.63 19.234 24.154-11.768 44.779-29.891 61.13-56.181 3.335-5.361 7.624-10.098 12.82-13.683 44.272-30.539 53.134-79.401 58.191-95.922-47.493 16.779-48.853-15.733-48.853-15.733z" fill="#cc1f41"/><path d="m343.008 41.576c-47.059 20.806-59.551 85.501-17.619 118.936 41.931 33.435 45.241 65.648 45.241 65.648.709-9.817 6.265-18.649 14.79-23.569 46.54-26.854 39.975-65.669 39.975-65.669l15.05-80.913c.001.001-41.68-39.084-97.437-14.433z" fill="#fcf3db"/><path d="m424.977 101.964c-.804.239-1.619.49-2.45.759 0 0-13.835 18.912 2.869 34.2 0 0 27.949-14.675 46.348.492 0 0 .195-1.357.292-3.556-11.06-26.375-40.898-31.177-47.059-31.895z" fill="#f7b126"/><path d="m424.977 101.964c-.804.239-1.619.49-2.45.759 0 0-13.834 18.913 2.869 34.2 0 0 7.634-4.001 17.545-5.664v-.001c-4.217-10.022.824-14.829 4.865-16.965 1.524-.806 2.685-2.108 3.313-3.647-11.161-6.485-22.589-8.268-26.142-8.682z" fill="#f49e21"/><path d="m82.546 436.851-2.962.139c22.497 23.342 49.581 42.228 79.804 55.212 48.83-24.981 90.507-63.433 119.401-111.995l6.895-11.588c-50.637 54.082-116.181 64.167-203.138 68.232z" fill="#2050bc"/><path d="m79.584 436.99c22.497 23.342 49.581 42.229 79.804 55.212 2.978-1.523 5.928-3.099 8.852-4.722-17.858-22.075-6.414-42.165 1.213-51.526 1.892-2.322 2.476-5.366 1.72-8.122-26.794 5.152-56.222 7.504-88.626 9.02z" fill="#12379e"/><path d="m84.516 377.752 23.805-1.113c97.461-4.556 168.487-16.537 221.919-87.613 5.651-40.811-12.376-82.993-49.657-105.55-50.362-30.472-115.817-14.047-145.862 36.451-.057.095-34.743 73.505-69.876 144.168 2.589 7.965 10.155 14.102 19.671 13.657z" fill="#f4456f"/><path d="m177.227 360.48c-77.551-48.484-42.506-140.553-42.506-140.553-.057.096-34.743 73.505-69.877 144.168 2.59 7.964 10.155 14.102 19.671 13.657l23.805-1.113c26.132-1.222 50.361-2.979 72.863-6.265.912-3.633-.448-7.7-3.956-9.894z" fill="#dd2a44"/><path d="m109.851 374.728-23.397 1.094c-10.08.471-17.944-6.568-19.846-15.275-6.125 12.339-12.277 24.623-18.282 36.468 9.559 15.236 20.743 29.345 33.317 42.083l.575-.027c105.694-4.942 179.758-18.76 233.861-109.692 8.338-14.013 13.144-29.219 14.658-44.516-52.826 73.197-123.403 85.308-220.886 89.865z" fill="#ffc82e"/><path d="m86.454 375.822c-10.08.471-17.944-6.568-19.847-15.275-6.125 12.339-12.276 24.623-18.281 36.468 9.559 15.236 20.743 29.345 33.316 42.083l.575-.027c32.664-1.527 62.303-3.906 89.27-9.143-.057-1.838-.667-3.662-1.859-5.193-17.102-21.98-3.013-39.931 8.58-49.615 2.07-1.73 3.141-4.126 3.251-6.547-22.114 3.228-45.927 4.955-71.608 6.155z" fill="#f7b126"/><path d="m440.445 56.011s-24.298 11.023-17.918 46.713c0 0 46.468 3.276 51.82 45.913.37 2.951 4.415 3.458 5.477.68 8.371-21.911 18.865-70.39-39.379-93.306z" fill="#ffe266"/><path d="m478.392 85.516c-6.764-11.387-18.534-21.867-37.947-29.505 0 0-24.298 11.023-17.918 46.713 0 0 14.284 1.011 27.926 9.176.743-1.112 1.179-2.422 1.186-3.811.154-26.681 26.617-22.594 26.753-22.573z" fill="#ffc82e"/><path d="m380.591 140.668c-16-16-9.766-36.977-9.766-36.977l-3.002-35.644c-27.309-6.777-11.408-31.235-11.359-31.31-4.381 1.222-8.87 2.811-13.456 4.839-47.059 20.806-59.551 85.501-17.619 118.937 41.931 33.435 45.241 65.648 45.241 65.648.5-6.914 3.411-13.333 8.063-18.247-8.179-31.695 12.067-57.077 1.898-67.246z" fill="#f9e6bd"/><ellipse cx="373.518" cy="85.517" fill="#4f2e17" rx="18.374" ry="18.373" transform="matrix(.177 -.984 .984 .177 223.134 437.956)"/></svg>