<?xml version="1.0" encoding="UTF-8"?>
<!-- Generator: Adobe Illustrator 26.0.3, SVG Export Plug-In . SVG Version: 6.00 Build 0)  -->
<svg xmlns="http://www.w3.org/2000/svg" xmlns:xlink="http://www.w3.org/1999/xlink" version="1.1" id="Capa_1" x="0px" y="0px" viewBox="0 0 512 512" style="enable-background:new 0 0 512 512;" xml:space="preserve" width="512" height="512">
<g>
	<g>
		<polygon style="fill:#7287F6;" points="89.329,339.944 240.953,508.746 493.658,339.944 350.593,225.594 350.593,0 19.346,95.681       "/>
		<polygon style="fill:#021673;" points="240.549,512 87.107,341.174 16.968,96.364 21.721,95.003 91.548,338.715 241.364,505.5     492.288,337.888 495.032,342.006   "/>
		<polygon style="fill:#021673;" points="95.492,337.67 95,336.536 350.344,225.025 350.837,226.159   "/>
	</g>
	<polygon style="fill:#021673;" points="285.274,404.507 359.141,357.835 391.8,392.841 316.379,442.623  "/>
	<g>
		<polygon style="opacity:0.45;fill:#FFFFFF;" points="118.876,343.832 348.258,242.708 415.127,308.831 205.966,442.623   "/>
		
			<rect x="164.762" y="358.144" transform="matrix(0.8601 -0.5102 0.5102 0.8601 -141.4719 203.0082)" style="fill:#7287F6;" width="269.104" height="2.479"/>
		
			<rect x="229.074" y="289.073" transform="matrix(0.8122 -0.5834 0.5834 0.8122 -164.3662 201.2111)" style="fill:#7287F6;" width="2.476" height="133.611"/>
		<polygon style="fill:#7287F6;" points="363.613,351.932 286.486,259.917 288.382,258.321 365.507,350.332   "/>
		
			<rect x="344.347" y="240.32" transform="matrix(0.7492 -0.6624 0.6624 0.7492 -109.6167 303.2549)" style="fill:#7287F6;" width="2.479" height="112.074"/>
		
			<rect x="360.952" y="229.664" transform="matrix(0.7701 -0.6379 0.6379 0.7701 -99.4323 296.876)" style="fill:#7287F6;" width="2.475" height="113.466"/>
		
			<rect x="207.013" y="300.728" transform="matrix(0.7636 -0.6456 0.6456 0.7636 -189.0718 221.6899)" style="fill:#7287F6;" width="2.471" height="136.703"/>
		
			<rect x="183.709" y="309.898" transform="matrix(0.8295 -0.5585 0.5585 0.8295 -181.3515 168.2946)" style="fill:#7287F6;" width="2.474" height="142.508"/>
		
			<rect x="110.539" y="304.714" transform="matrix(0.9172 -0.3983 0.3983 0.9172 -101.6143 122.8085)" style="fill:#7287F6;" width="268.415" height="2.475"/>
		
			<rect x="270.353" y="267.865" transform="matrix(0.7957 -0.6057 0.6057 0.7957 -137.1017 229.4421)" style="fill:#7287F6;" width="2.47" height="100.207"/>
		<polygon style="fill:#7287F6;" points="275.456,373.971 213.458,289.513 215.456,288.048 277.642,372.768   "/>
		
			<rect x="293.454" y="254.785" transform="matrix(0.8051 -0.5931 0.5931 0.8051 -123.2143 234.1315)" style="fill:#7287F6;" width="2.47" height="99.571"/>
		
			<rect x="124.907" y="319.721" transform="matrix(0.897 -0.4421 0.4421 0.897 -115.02 148.3802)" style="fill:#7287F6;" width="271.851" height="2.478"/>
		
			<rect x="144.845" y="335.863" transform="matrix(0.8699 -0.4933 0.4933 0.8699 -130.2447 180.4553)" style="fill:#7287F6;" width="264.162" height="2.479"/>
		
			<rect x="152.38" y="347.832" transform="matrix(0.8628 -0.5055 0.5055 0.8628 -137.6469 190.8847)" style="fill:#7287F6;" width="261.037" height="2.473"/>
	</g>
	<g>
		<polygon style="fill:#FFFFFF;" points="338.926,216.255 94.771,322.053 38.01,106.575 338.926,27.226   "/>
		<g>
			<g>
				<polygon style="fill:#FF6C43;" points="181.66,253.48 177.102,251.554 203.319,189.468 225.41,212.892 260.291,199.621       262.894,138.728 281.807,153.247 318.958,59.74 323.557,61.566 283.988,161.162 267.431,148.456 265.096,203.092       224.079,218.701 204.928,198.387     "/>
				<polygon style="fill:#FF6C43;" points="301.929,67.669 329.503,75.507 325.996,48.688     "/>
			</g>
			<g>
				<path style="fill:#021673;" d="M321.457,206.867l-18.289-15.035l17.207-17.48c5.716,5.203,8.611,13.213,6.945,21.34      C326.423,200.068,324.337,203.883,321.457,206.867z"/>
				<path style="fill:#FF6C43;" d="M297.653,213.575c-12.279-2.518-20.197-14.528-17.672-26.81      c0.976-4.782,3.393-8.905,6.708-12.002l13.597,17.268l18.291,15.025C313.366,212.486,305.573,215.202,297.653,213.575z"/>
				<path style="fill:#FFD500;" d="M301.195,189.884L287.6,172.616c5.185-4.864,12.591-7.219,20.088-5.682      c4.138,0.85,7.795,2.785,10.715,5.456L301.195,189.884z"/>
			</g>
			<g>
				<polygon style="fill:#021673;" points="158.085,159.702 140.132,88.806 142.533,88.205 159.841,156.565 256.134,126.627       256.869,128.987     "/>
				
					<rect x="163.913" y="91.29" transform="matrix(0.9782 -0.2076 0.2076 0.9782 -21.1221 37.9138)" style="fill:#FF6C43;" width="12.372" height="56.63"/>
				
					<rect x="188.941" y="99.908" transform="matrix(0.9824 -0.1866 0.1866 0.9824 -19.0085 38.5271)" style="fill:#021673;" width="12.374" height="40.634"/>
				
					<rect x="211.543" y="97.728" transform="matrix(0.98 -0.1988 0.1988 0.98 -18.7524 45.5958)" style="fill:#FFD500;" width="12.373" height="36.945"/>
			</g>
			<g>
				
					<rect x="251.575" y="60.346" transform="matrix(0.9648 -0.2631 0.2631 0.9648 -6.8386 72.0948)" style="fill:#021673;" width="28.428" height="2.476"/>
				<polygon style="fill:#021673;" points="253.929,73.613 253.305,71.213 271.277,66.57 271.892,68.966     "/>
				
					<rect x="253.133" y="78.449" transform="matrix(0.9736 -0.2283 0.2283 0.9736 -11.0247 64.0638)" style="fill:#021673;" width="36.539" height="2.475"/>
				<polygon style="fill:#021673;" points="256.781,93.118 256.232,90.704 271.311,87.3 271.863,89.714     "/>
				
					<rect x="275.883" y="84.018" transform="matrix(0.9724 -0.2335 0.2335 0.9724 -12.117 68.1671)" style="fill:#021673;" width="11.882" height="2.476"/>
				<polygon style="fill:#021673;" points="259.21,103.311 258.537,100.929 294.349,90.718 295.025,93.1     "/>
				
					<rect x="260.479" y="107.384" transform="matrix(0.9742 -0.2257 0.2257 0.9742 -17.4412 64.6995)" style="fill:#021673;" width="27.475" height="2.475"/>
			</g>
			<g>
				<polyline style="fill:#FF6C43;" points="93.913,219.605 96.288,241.461 111.582,236.466 100.252,210.985     "/>
				<polyline style="fill:#FF6C43;" points="114.794,209.602 117.228,233.649 130.448,226.168 119.158,204.471     "/>
				<polyline style="fill:#FF6C43;" points="94.453,131.816 85.326,108.532 99.757,108.067 100.214,130.325     "/>
				<polygon style="fill:#FF6C43;" points="68.12,113.902 74.979,142.778 85.279,135.383 79.793,110.367     "/>
				<path style="fill:#FF6C43;" d="M90.877,233.984L64.824,126.41c0,0,48.905-19.401,59.887,2.075      c10.984,21.472-23.223,38.097-23.223,38.097s36.528-5.515,42.412,13.868C153.325,211.518,90.877,233.984,90.877,233.984z"/>
				<path style="fill:#FFFFFF;" d="M83.715,163.707l-10.22-33.631c0,0,33.866-11.64,40.567,3.616      C120.756,148.953,83.715,163.707,83.715,163.707z"/>
				<path style="fill:#FFFFFF;" d="M96.564,223.257l-8.379-40.556c0,0,34.126-11.699,44.855,3.268      C143.771,200.941,96.564,223.257,96.564,223.257z"/>
			</g>
			<g>
				<polygon style="fill:#FFD500;" points="100.214,304.573 88.185,259.121 164.115,233.649 172.369,278.102     "/>
				
					<rect x="96.409" y="258.191" transform="matrix(0.9394 -0.3427 0.3427 0.9394 -82.175 53.7886)" style="fill:#021673;" width="29.424" height="2.474"/>
				<polygon style="fill:#021673;" points="100.614,274.735 99.814,272.388 156.295,253.2 157.095,255.546     "/>
				
					<rect x="104.374" y="277.252" transform="matrix(0.9463 -0.3233 0.3233 0.9463 -83.9648 51.577)" style="fill:#021673;" width="17.738" height="2.474"/>
				<polygon style="fill:#021673;" points="107.198,289.995 106.388,287.658 144.739,274.454 145.548,276.796     "/>
				
					<rect x="111.962" y="284.703" transform="matrix(0.9474 -0.3201 0.3201 0.9474 -84.3338 58.7696)" style="fill:#021673;" width="49.312" height="2.473"/>
			</g>
		</g>
		<polyline style="opacity:0.2;fill:#FFFFFF;" points="51.53,112.921 102.747,313.496 102.747,95.003   "/>
		<polyline style="opacity:0.2;fill:#FFFFFF;" points="329.503,38.278 285.274,230.824 329.503,212.246   "/>
	</g>
</g>















</svg>
